<?xml version="1.0" ?><svg id="Layer_1" style="enable-background:new 0 0 595.3 595.3;" version="1.1" viewBox="0 0 595.3 595.3" xml:space="preserve" xmlns="http://www.w3.org/2000/svg" xmlns:xlink="http://www.w3.org/1999/xlink"><style type="text/css">
	.st0{fill:#58595B;}
	.st1{fill:#3A1811;}
	.st2{fill:#726658;}
	.st3{fill:#0DB4E7;}
	.st4{fill:#009DD4;}
	.st5{fill:#009444;}
	.st6{fill:#FBB040;}
	.st7{fill:#EFF8F5;}
	.st8{fill:#D81F26;}
	.st9{fill:#BCBEC0;}
	.st10{fill:#735032;}
	.st11{fill:#1C75BC;}
	.st12{fill:#FFD128;}
	.st13{fill:#D1AE23;}
	.st14{fill:#F9ED32;}
	.st15{fill:#939598;}
	.st16{fill:#9B8579;}
	.st17{fill:#F1B279;}
	.st18{fill:#603913;}
	.st19{fill:#754C29;}
	.st20{fill:#8B5E3C;}
	.st21{fill:#C49A6C;}
	.st22{fill:#F7941E;}
	.st23{fill:#00AEEF;}
	.st24{fill:#FAF5AE;}
	.st25{fill:#F5F7D5;}
	.st26{fill:#7ABE90;}
	.st27{fill:#BFA863;}
	.st28{fill:#2B3990;}
	.st29{fill:#EF3824;}
	.st30{fill:#BE1E2D;}
	.st31{fill:#A67A44;}
	.st32{fill:#00A388;}
	.st33{fill:#ABE0F1;}
	.st34{fill:#594A42;}
</style><g><g><circle class="st12" cx="299.3" cy="300.8" r="189.9"/><path class="st1" d="M299.3,495.7c-107.5,0-194.9-87.4-194.9-194.9s87.4-194.9,194.9-194.9s194.9,87.4,194.9,194.9    S406.8,495.7,299.3,495.7z M299.3,115.8c-102,0-184.9,83-184.9,184.9s83,184.9,184.9,184.9s184.9-83,184.9-184.9    S401.3,115.8,299.3,115.8z"/></g><g><circle class="st13" cx="299.3" cy="300.8" r="143.9"/><path class="st1" d="M299.3,449.7c-82.1,0-148.9-66.8-148.9-148.9s66.8-148.9,148.9-148.9c82.1,0,148.9,66.8,148.9,148.9    S381.4,449.7,299.3,449.7z M299.3,161.8c-76.6,0-138.9,62.3-138.9,138.9s62.3,138.9,138.9,138.9c76.6,0,138.9-62.3,138.9-138.9    S375.9,161.8,299.3,161.8z"/></g><g><path class="st1" d="M299.3,431.7c-72.2,0-130.9-58.7-130.9-130.9c0-72.2,58.7-130.9,130.9-130.9s130.9,58.7,130.9,130.9    C430.2,372.9,371.5,431.7,299.3,431.7z M299.3,174.9c-69.4,0-125.9,56.5-125.9,125.9s56.5,125.9,125.9,125.9    s125.9-56.5,125.9-125.9S368.7,174.9,299.3,174.9z"/></g><g><path class="st12" d="M359.8,312.5c-2.9-5.7-7-10.4-12.3-14.1c-5.2-3.7-11.6-6.9-19.1-9.5c-7.5-2.6-15.8-5-25-7.1    c-7.4-1.9-12.6-3.3-15.8-4.2c-3.2-1-6.4-2.3-9.5-4c-3.1-1.7-5.6-3.7-7.4-6.1c-1.8-2.4-2.7-5.2-2.7-8.5c0-5.3,2.6-9.8,7.9-13.5    c5.2-3.7,12.1-5.6,20.7-5.6c9.2,0,15.9,1.7,20.1,5.2c4.2,3.5,7.7,8.3,10.7,14.4c2.3,4.3,4.4,7.4,6.4,9.3c2,1.9,4.8,2.8,8.6,2.8    c4.2,0,7.6-1.6,10.4-4.7c2.8-3.2,4.2-6.7,4.2-10.6c0-4.3-1.1-8.7-3.3-13.3c-2.2-4.5-5.8-8.9-10.6-13c-4.8-4.1-10.9-7.4-18.2-9.9    c-3.1-1.1-6.5-1.9-10.1-2.5v-6c0-8.8-7.1-15.9-15.9-15.9c-8.8,0-15.9,7.1-15.9,15.9v6c-6.1,0.9-11.7,2.4-16.8,4.5    c-9.3,3.8-16.4,9.1-21.3,16.1c-4.9,7-7.4,15-7.4,24c0,9.4,2.3,17.3,7,23.7c4.6,6.4,10.9,11.4,18.8,15c7.9,3.7,17.7,6.9,29.5,9.6    c8.8,2,15.8,3.9,21,5.7c5.2,1.8,9.5,4.4,12.8,7.7c3.3,3.4,5,7.8,5,13.2c0,6.8-3.1,12.5-9.2,17.1c-6.1,4.6-14.1,6.9-23.9,6.9    c-7.1,0-12.9-1.1-17.3-3.4c-4.4-2.3-7.8-5.1-10.2-8.6c-2.4-3.5-4.7-7.8-6.7-13c-1.7-4.4-3.8-7.7-6.2-9.9c-2.4-2.2-5.4-3.3-8.9-3.3    c-4.3,0-7.9,1.4-10.6,4.3c-2.8,2.9-4.2,6.3-4.2,10.3c0,6.9,2.3,14,7,21.3c4.6,7.3,10.7,13.2,18.1,17.5c6.7,3.9,14.5,6.5,23.5,7.9    v6c0,8.8,7.1,15.9,15.9,15.9c8.8,0,15.9-7.1,15.9-15.9v-5.9c7.1-1.1,13.6-2.9,19.4-5.6c9.8-4.5,17.3-10.6,22.3-18.5    c5.1-7.9,7.6-16.7,7.6-26.6C364.2,325.2,362.7,318.2,359.8,312.5z"/><path class="st1" d="M298.9,411c-11.5,0-20.9-9.4-20.9-20.9v-1.8c-7.9-1.6-14.9-4.2-21-7.8c-8.1-4.8-14.8-11.2-19.8-19.2    c-5.1-8.1-7.7-16.2-7.7-24c0-5.3,1.9-10,5.6-13.8c3.8-3.8,8.5-5.8,14.2-5.8c4.8,0,8.9,1.6,12.2,4.7c3,2.8,5.4,6.6,7.5,11.8    c1.9,4.8,4,8.8,6.2,12c1.9,2.8,4.7,5.2,8.4,7c3.6,1.9,8.7,2.8,15,2.8c8.7,0,15.7-2,20.9-5.9c4.8-3.6,7.2-7.9,7.2-13.1    c0-4.1-1.2-7.3-3.5-9.7c-2.7-2.8-6.4-5-10.8-6.5c-5.1-1.7-11.9-3.6-20.5-5.5c-12-2.8-22.3-6.2-30.5-10c-8.6-4-15.6-9.6-20.8-16.6    c-5.3-7.2-7.9-16.2-7.9-26.6c0-10,2.8-19,8.3-26.8c5.4-7.8,13.4-13.8,23.5-17.9c4.2-1.7,8.8-3,13.7-4v-1.8    c0-11.5,9.4-20.9,20.9-20.9c11.5,0,20.9,9.4,20.9,20.9v1.9c2.4,0.5,4.6,1.2,6.7,1.9c7.9,2.7,14.6,6.3,19.9,10.8    c5.3,4.5,9.3,9.5,11.8,14.6c2.6,5.2,3.9,10.4,3.9,15.5c0,5.2-1.8,9.9-5.4,13.9c-3.7,4.2-8.6,6.4-14.2,6.4c-5.1,0-9.2-1.4-12.1-4.2    c-2.4-2.3-4.8-5.7-7.3-10.5l-0.1-0.2c-2.6-5.5-5.8-9.8-9.4-12.8c-3.2-2.6-9-4-16.9-4c-7.4,0-13.4,1.6-17.8,4.7    c-5.2,3.7-5.8,7.2-5.8,9.5c0,2.2,0.5,4,1.7,5.5c1.3,1.8,3.3,3.4,5.8,4.7c2.8,1.5,5.7,2.8,8.5,3.6c3.1,1,8.4,2.4,15.6,4.2    c9.3,2.2,17.9,4.6,25.4,7.3c7.9,2.7,14.7,6.1,20.3,10.1c5.9,4.2,10.5,9.5,13.8,15.9l0,0c3.3,6.4,5,14.2,5,23.2    c0,10.8-2.8,20.7-8.4,29.3c-5.6,8.7-13.8,15.5-24.5,20.3c-5,2.3-10.5,4-16.4,5.2v1.7C319.8,401.6,310.4,411,298.9,411z     M249.2,327.6c-3,0-5.2,0.9-7.1,2.8c-1.9,1.9-2.8,4.1-2.8,6.8c0,5.9,2.1,12.2,6.2,18.7c4.2,6.6,9.7,12,16.4,15.9    c6.1,3.5,13.4,6,21.7,7.3l4.2,0.7V390c0,6,4.9,10.9,10.9,10.9c6,0,10.9-4.9,10.9-10.9v-10.2l4.3-0.6c6.6-1,12.7-2.7,18.1-5.2    c8.9-4,15.7-9.6,20.2-16.7c4.5-7,6.8-15.1,6.8-23.9c0-7.4-1.3-13.7-3.8-18.6v0c-2.5-4.9-6.2-9.1-10.7-12.3    c-4.8-3.4-10.8-6.4-17.8-8.8c-7.2-2.5-15.5-4.9-24.5-7c-7.4-1.9-12.8-3.3-16.1-4.3c-3.5-1.1-7-2.5-10.4-4.4c-3.7-2-6.7-4.6-9-7.5    c-2.4-3.2-3.7-7.1-3.7-11.5c0-7,3.3-12.9,9.9-17.6c6.1-4.4,14-6.6,23.6-6.6c10.5,0,18.1,2.1,23.2,6.3c4.7,3.9,8.7,9.3,12,16    c2.5,4.7,4.3,6.9,5.4,8c1,1,2.7,1.4,5.2,1.4c2.7,0,4.8-1,6.7-3c2-2.2,2.9-4.6,2.9-7.3c0-3.5-1-7.2-2.8-11.1    c-1.9-3.9-5.1-7.7-9.3-11.4c-4.3-3.7-9.9-6.7-16.6-9c-2.8-0.9-5.9-1.7-9.3-2.3l-4.2-0.7v-10.3c0-6-4.9-10.9-10.9-10.9    c-6,0-10.9,4.9-10.9,10.9v10.3l-4.2,0.6c-5.8,0.9-11,2.3-15.7,4.2c-8.3,3.4-14.7,8.2-19.1,14.3c-4.3,6.2-6.4,13.1-6.4,21.1    c0,8.3,2,15.3,6,20.7c4.1,5.6,9.8,10.2,16.9,13.5c7.6,3.5,17.2,6.6,28.5,9.3c8.9,2,16.1,4,21.5,5.8c6,2,10.9,5.1,14.8,9    c4.2,4.3,6.4,10,6.4,16.7c0,8.5-3.8,15.6-11.2,21.1c-7,5.2-16,7.8-26.9,7.8c-7.9,0-14.5-1.3-19.6-4c-5.1-2.6-9.1-6.1-12-10.2    c-2.6-3.8-5.1-8.5-7.3-14c-1.4-3.7-3.1-6.4-4.9-8.1C253.2,328.3,251.4,327.6,249.2,327.6z"/></g><g><path class="st1" d="M299.3,147.9c-1.4,0-2.5-1.1-2.5-2.5V121c0-1.4,1.1-2.5,2.5-2.5c1.4,0,2.5,1.1,2.5,2.5v24.4    C301.8,146.8,300.7,147.9,299.3,147.9z"/></g><g><path class="st1" d="M246.1,157.3c-1,0-2-0.6-2.3-1.6l-8.4-22.9c-0.5-1.3,0.2-2.7,1.5-3.2c1.3-0.5,2.7,0.2,3.2,1.5l8.4,22.9    c0.5,1.3-0.2,2.7-1.5,3.2C246.7,157.2,246.4,157.3,246.1,157.3z"/></g><g><path class="st1" d="M199.4,184.2c-0.7,0-1.4-0.3-1.9-0.9l-15.7-18.7c-0.9-1.1-0.7-2.6,0.3-3.5c1.1-0.9,2.6-0.7,3.5,0.3l15.7,18.7    c0.9,1.1,0.7,2.6-0.3,3.5C200.5,184,200,184.2,199.4,184.2z"/></g><g><path class="st1" d="M164.7,225.6c-0.4,0-0.9-0.1-1.2-0.3L142.3,213c-1.2-0.7-1.6-2.2-0.9-3.4c0.7-1.2,2.2-1.6,3.4-0.9l21.1,12.2    c1.2,0.7,1.6,2.2,0.9,3.4C166.4,225.1,165.6,225.6,164.7,225.6z"/></g><g><path class="st1" d="M146.3,276.3c-0.1,0-0.3,0-0.4,0l-24-4.2c-1.4-0.2-2.3-1.5-2-2.9s1.5-2.3,2.9-2l24,4.2c1.4,0.2,2.3,1.5,2,2.9    C148.5,275.4,147.5,276.3,146.3,276.3z"/></g><g><path class="st1" d="M122.2,334.5c-1.2,0-2.2-0.9-2.5-2.1c-0.2-1.4,0.7-2.7,2-2.9l24-4.2c1.4-0.2,2.7,0.7,2.9,2s-0.7,2.7-2,2.9    l-24,4.2C122.5,334.5,122.4,334.5,122.2,334.5z"/></g><g><path class="st1" d="M143.6,393.2c-0.9,0-1.7-0.4-2.2-1.3c-0.7-1.2-0.3-2.7,0.9-3.4l21.1-12.2c1.2-0.7,2.7-0.3,3.4,0.9    s0.3,2.7-0.9,3.4l-21.1,12.2C144.4,393.1,144,393.2,143.6,393.2z"/></g><g><path class="st1" d="M183.7,441c-0.6,0-1.1-0.2-1.6-0.6c-1.1-0.9-1.2-2.5-0.3-3.5l15.7-18.7c0.9-1.1,2.5-1.2,3.5-0.3    c1.1,0.9,1.2,2.5,0.3,3.5l-15.7,18.7C185.1,440.7,184.4,441,183.7,441z"/></g><g><path class="st1" d="M237.8,472.2c-0.3,0-0.6,0-0.9-0.2c-1.3-0.5-2-1.9-1.5-3.2l8.4-22.9c0.5-1.3,1.9-2,3.2-1.5    c1.3,0.5,2,1.9,1.5,3.2l-8.4,22.9C239.8,471.6,238.8,472.2,237.8,472.2z"/></g><g><path class="st1" d="M299.3,483.1c-1.4,0-2.5-1.1-2.5-2.5v-24.4c0-1.4,1.1-2.5,2.5-2.5c1.4,0,2.5,1.1,2.5,2.5v24.4    C301.8,482,300.7,483.1,299.3,483.1z"/></g><g><path class="st1" d="M360.8,472.2c-1,0-2-0.6-2.3-1.6l-8.4-22.9c-0.5-1.3,0.2-2.7,1.5-3.2c1.3-0.5,2.7,0.2,3.2,1.5l8.4,22.9    c0.5,1.3-0.2,2.7-1.5,3.2C361.4,472.2,361.1,472.2,360.8,472.2z"/></g><g><path class="st1" d="M414.9,441c-0.7,0-1.4-0.3-1.9-0.9l-15.7-18.7c-0.9-1.1-0.8-2.6,0.3-3.5c1.1-0.9,2.6-0.8,3.5,0.3l15.7,18.7    c0.9,1.1,0.8,2.6-0.3,3.5C416,440.8,415.4,441,414.9,441z"/></g><g><path class="st1" d="M455,393.2c-0.4,0-0.9-0.1-1.2-0.3l-21.1-12.2c-1.2-0.7-1.6-2.2-0.9-3.4c0.7-1.2,2.2-1.6,3.4-0.9l21.1,12.2    c1.2,0.7,1.6,2.2,0.9,3.4C456.7,392.7,455.9,393.2,455,393.2z"/></g><g><path class="st1" d="M476.4,334.5c-0.1,0-0.3,0-0.4,0l-24-4.2c-1.4-0.2-2.3-1.5-2-2.9s1.5-2.3,2.9-2l24,4.2c1.4,0.2,2.3,1.5,2,2.9    C478.6,333.6,477.6,334.5,476.4,334.5z"/></g><g><path class="st1" d="M452.3,276.3c-1.2,0-2.2-0.9-2.5-2.1c-0.2-1.4,0.7-2.7,2-2.9l24-4.2c1.4-0.2,2.7,0.7,2.9,2    c0.2,1.4-0.7,2.7-2,2.9l-24,4.2C452.6,276.3,452.5,276.3,452.3,276.3z"/></g><g><path class="st1" d="M433.9,225.6c-0.9,0-1.7-0.4-2.2-1.3c-0.7-1.2-0.3-2.7,0.9-3.4l21.1-12.2c1.2-0.7,2.7-0.3,3.4,0.9    c0.7,1.2,0.3,2.7-0.9,3.4l-21.1,12.2C434.7,225.5,434.3,225.6,433.9,225.6z"/></g><g><path class="st1" d="M399.2,184.2c-0.6,0-1.1-0.2-1.6-0.6c-1.1-0.9-1.2-2.5-0.3-3.5l15.7-18.7c0.9-1.1,2.5-1.2,3.5-0.3    c1.1,0.9,1.2,2.5,0.3,3.5l-15.7,18.7C400.6,183.9,399.9,184.2,399.2,184.2z"/></g><g><path class="st1" d="M352.4,157.3c-0.3,0-0.6,0-0.9-0.2c-1.3-0.5-2-1.9-1.5-3.2l8.4-22.9c0.5-1.3,1.9-2,3.2-1.5    c1.3,0.5,2,1.9,1.5,3.2l-8.4,22.9C354.4,156.6,353.5,157.3,352.4,157.3z"/></g><g><path class="st1" d="M435.4,193c-0.8,0-1.6-0.4-2.1-1.2c-16.8-26.6-45.5-42.3-45.7-42.5c-1.2-0.7-1.7-2.2-1-3.4    c0.7-1.2,2.2-1.7,3.4-1c1.2,0.7,30.1,16.5,47.6,44.2c0.7,1.2,0.4,2.7-0.8,3.4C436.3,192.8,435.8,193,435.4,193z"/></g><g><path class="st1" d="M461.1,367.6c-0.3,0-0.6-0.1-0.9-0.2c-1.3-0.5-1.9-2-1.4-3.2c27.5-70.2,0.3-128.8,0.1-129.4    c-0.6-1.2-0.1-2.7,1.2-3.3c1.2-0.6,2.7-0.1,3.3,1.2c0.3,0.6,7.2,15.4,10.8,39.4c3.3,22,4,56.2-10.7,93.9    C463,367,462.1,367.6,461.1,367.6z"/></g><g><path class="st1" d="M310.5,477c-1.3,0-2.4-1-2.5-2.3c-0.1-1.4,0.9-2.6,2.3-2.7c75.1-5.3,116.5-54.9,116.9-55.4    c0.9-1.1,2.5-1.2,3.5-0.4c1.1,0.9,1.2,2.4,0.4,3.5c-0.4,0.5-10.8,13.2-30.9,26.6c-18.5,12.4-49.1,27.8-89.5,30.6    C310.6,477,310.6,477,310.5,477z"/></g><g><path class="st1" d="M410.7,276.3c-1.1,0-2.2-0.8-2.4-2c-11.4-52.2-59.5-76.3-60-76.5c-1.2-0.6-1.8-2.1-1.1-3.3    c0.6-1.2,2.1-1.8,3.3-1.1c0.5,0.2,50.7,25.3,62.7,79.9c0.3,1.3-0.6,2.7-1.9,3C411.1,276.3,410.9,276.3,410.7,276.3z"/></g><g><path class="st1" d="M385.9,381c-0.6,0-1.3-0.2-1.7-0.7c-1-1-1-2.5-0.1-3.5c27-27.9,28.3-75.5,28.3-76c0-1.4,1.2-2.5,2.5-2.4    c1.4,0,2.5,1.2,2.4,2.5c0,2-1.3,50-29.7,79.4C387.2,380.7,386.5,381,385.9,381z"/></g></g></svg>