<?xml version="1.0" encoding="UTF-8" standalone="no"?>
<!-- Created with Inkscape (http://www.inkscape.org/) -->
<svg
   xmlns:dc="http://purl.org/dc/elements/1.1/"
   xmlns:cc="http://web.resource.org/cc/"
   xmlns:rdf="http://www.w3.org/1999/02/22-rdf-syntax-ns#"
   xmlns:svg="http://www.w3.org/2000/svg"
   xmlns="http://www.w3.org/2000/svg"
   xmlns:sodipodi="http://sodipodi.sourceforge.net/DTD/sodipodi-0.dtd"
   xmlns:inkscape="http://www.inkscape.org/namespaces/inkscape"
   version="1.0"
   width="450"
   height="116"
   viewBox="0 0 450 116"
   id="Layer_1"
   xml:space="preserve"
   sodipodi:version="0.32"
   inkscape:version="0.44+devel"
   sodipodi:docname="Gerald_G_Ribbon_Banner.svg"
   inkscape:output_extension="org.inkscape.output.svg.inkscape"
   sodipodi:docbase="C:\Documents and Settings\Molumen\Desktop"
   sodipodi:modified="true"><sodipodi:namedview
   inkscape:window-height="862"
   inkscape:window-width="1124"
   inkscape:pageshadow="2"
   inkscape:pageopacity="0.0"
   guidetolerance="10.0"
   gridtolerance="10.0"
   objecttolerance="10.0"
   borderopacity="1.0"
   bordercolor="#666666"
   pagecolor="#ffffff"
   id="base"
   inkscape:zoom="1.4533333"
   inkscape:cx="225"
   inkscape:cy="58"
   inkscape:window-x="154"
   inkscape:window-y="203"
   inkscape:current-layer="Layer_1" /><defs
   id="defs26">
	
		
	
<filter
   inkscape:collect="always"
   x="-0.030031393"
   width="1.0600628"
   y="-0.14922008"
   height="1.2984402"
   id="filter3196"><feGaussianBlur
     inkscape:collect="always"
     stdDeviation="6.2978383"
     id="feGaussianBlur3198" /></filter></defs>
<metadata
   id="metadata4">
<rdf:RDF>
      <cc:Work
   rdf:about="">
         <dc:title>Ribbon Banner</dc:title>
         <dc:description>Ribbon Banner</dc:description>
         <dc:subject>
          <rdf:Bag><rdf:li>banner</rdf:li><rdf:li>sign</rdf:li><rdf:li>blue</rdf:li></rdf:Bag>
         </dc:subject>
         <dc:publisher><cc:Agent
     rdf:about="http://www.openclipart.org/"><dc:title>Open Clip Art Project</dc:title></cc:Agent></dc:publisher>
         <dc:creator><cc:Agent
     rdf:about=""><dc:title>Gerald G.</dc:title></cc:Agent></dc:creator>
         <dc:rights><cc:Agent
     rdf:about="http://web.resource.org/cc/PublicDomain"><dc:title>Public Domain</dc:title></cc:Agent></dc:rights>
         <dc:date>2006/09/25</dc:date>
         <dc:format>image/svg+xml</dc:format>
         <dc:type
   rdf:resource="http://purl.org/dc/dcmitype/StillImage">http://purl.org/dc/dcmitype/StillImage</dc:type>
         <cc:license
   rdf:resource="http://web.resource.org/cc/PublicDomain" />
      </cc:Work>
      <cc:License
   rdf:about="http://web.resource.org/cc/PublicDomain">
         <cc:permits
   rdf:resource="http://web.resource.org/cc/Reproduction" />
         <cc:permits
   rdf:resource="http://web.resource.org/cc/Distribution" />
         <cc:permits
   rdf:resource="http://web.resource.org/cc/DerivativeWorks" />
      </cc:License>
   </rdf:RDF>
</metadata>






<g
   id="g2171"
   style="fill:#1a1a1a;filter:url(#filter3196)"
   transform="translate(10,10)">
		<path
   d="M 217.74,92.907 C 200.136,93.303 180.408,92.691 157.872,91.071 C 135.156,89.38 110.748,86.679 83.1,82.971 L 83.1,82.971 L 83.1,69.651 L 83.1,69.651 C 67.116,67.311 53.112,65.079 40.512,62.559 C 27.912,60.038 17.292,57.483 8.076,54.746 L 8.076,54.746 C 18.228,52.226 27.372,49.742 36.336,47.69 C 45.156,45.602 53.292,43.55 60.888,41.93 L 60.888,41.93 C 50.268,36.278 40.872,30.698 32.124,25.19 C 23.341,19.539 15.781,14.247 8.869,8.739 L 8.869,8.739 C 24.421,12.088 38.569,15.004 51.745,17.343 C 64.813,19.683 72.733,20.87 87.313,22.851 C 101.929,24.759 118.813,26.631 138.793,28.611 L 138.793,28.611 L 138.793,42.723 L 138.793,42.723 C 149.773,43.839 161.617,44.702 174.865,45.315 C 188.077,45.855 202.009,46.252 217.489,46.359 L 217.489,46.359 L 217.993,46.359 L 217.993,46.359 C 233.437,46.252 247.369,45.855 260.617,45.315 C 273.794,44.703 285.674,43.839 296.689,42.723 L 296.689,42.723 L 296.689,28.611 L 296.689,28.611 C 316.633,26.632 333.517,24.759 348.169,22.851 C 362.749,20.871 370.524,19.683 383.736,17.343 C 396.913,15.003 410.917,12.087 426.577,8.739 L 426.577,8.739 C 419.629,14.247 412.068,19.539 403.32,25.191 C 394.536,30.699 385.104,36.279 374.592,41.931 L 374.592,41.931 C 382.152,43.551 390.287,45.603 399.144,47.691 C 407.928,49.743 417.288,52.227 427.368,54.747 L 427.368,54.747 C 418.152,57.483 407.532,60.039 394.969,62.56 C 382.297,65.08 368.365,67.312 352.345,69.652 L 352.345,69.652 L 352.345,82.972 L 352.345,82.972 C 324.769,86.68 300.181,89.38 277.609,91.072 C 255.036,92.691 235.309,93.304 217.74,92.907 L 217.74,92.907 z "
   style="fill:#1a1a1a;fill-rule:evenodd"
   id="path2173" />
		<path
   d="M 217.74,92.907 C 200.136,93.303 180.408,92.691 157.872,91.071 C 135.156,89.38 110.748,86.679 83.1,82.971 L 83.1,82.971 L 83.1,69.651 L 83.1,69.651 C 67.116,67.311 53.112,65.079 40.512,62.559 C 27.912,60.038 17.292,57.483 8.076,54.746 L 8.076,54.746 C 18.228,52.226 27.372,49.742 36.336,47.69 C 45.156,45.602 53.292,43.55 60.888,41.93 L 60.888,41.93 C 50.268,36.278 40.872,30.698 32.124,25.19 C 23.341,19.539 15.781,14.247 8.869,8.739 L 8.869,8.739 C 24.421,12.088 38.569,15.004 51.745,17.343 C 64.813,19.683 72.733,20.87 87.313,22.851 C 101.929,24.759 118.813,26.631 138.793,28.611 L 138.793,28.611 L 138.793,42.723 L 138.793,42.723 C 149.773,43.839 161.617,44.702 174.865,45.315 C 188.077,45.855 202.009,46.252 217.489,46.359 L 217.489,46.359 L 217.993,46.359 L 217.993,46.359 C 233.437,46.252 247.369,45.855 260.617,45.315 C 273.794,44.703 285.674,43.839 296.689,42.723 L 296.689,42.723 L 296.689,28.611 L 296.689,28.611 C 316.633,26.632 333.517,24.759 348.169,22.851 C 362.749,20.871 370.524,19.683 383.736,17.343 C 396.913,15.003 410.917,12.087 426.577,8.739 L 426.577,8.739 C 419.629,14.247 412.068,19.539 403.32,25.191 C 394.536,30.699 385.104,36.279 374.592,41.931 L 374.592,41.931 C 382.152,43.551 390.287,45.603 399.144,47.691 C 407.928,49.743 417.288,52.227 427.368,54.747 L 427.368,54.747 C 418.152,57.483 407.532,60.039 394.969,62.56 C 382.297,65.08 368.365,67.312 352.345,69.652 L 352.345,69.652 L 352.345,82.972 L 352.345,82.972 C 324.769,86.68 300.181,89.38 277.609,91.072 C 255.036,92.691 235.309,93.304 217.74,92.907 L 217.74,92.907 z "
   style="fill:#1a1a1a;stroke:#000000;stroke-width:0.036;stroke-miterlimit:10"
   id="path2175" />
	</g><g
   id="g3200"
   transform="translate(6,166)"><g
     transform="translate(0,-160)"
     id="g9">
		<path
   d="M 217.74,92.907 C 200.136,93.303 180.408,92.691 157.872,91.071 C 135.156,89.38 110.748,86.679 83.1,82.971 L 83.1,82.971 L 83.1,69.651 L 83.1,69.651 C 67.116,67.311 53.112,65.079 40.512,62.559 C 27.912,60.038 17.292,57.483 8.076,54.746 L 8.076,54.746 C 18.228,52.226 27.372,49.742 36.336,47.69 C 45.156,45.602 53.292,43.55 60.888,41.93 L 60.888,41.93 C 50.268,36.278 40.872,30.698 32.124,25.19 C 23.341,19.539 15.781,14.247 8.869,8.739 L 8.869,8.739 C 24.421,12.088 38.569,15.004 51.745,17.343 C 64.813,19.683 72.733,20.87 87.313,22.851 C 101.929,24.759 118.813,26.631 138.793,28.611 L 138.793,28.611 L 138.793,42.723 L 138.793,42.723 C 149.773,43.839 161.617,44.702 174.865,45.315 C 188.077,45.855 202.009,46.252 217.489,46.359 L 217.489,46.359 L 217.993,46.359 L 217.993,46.359 C 233.437,46.252 247.369,45.855 260.617,45.315 C 273.794,44.703 285.674,43.839 296.689,42.723 L 296.689,42.723 L 296.689,28.611 L 296.689,28.611 C 316.633,26.632 333.517,24.759 348.169,22.851 C 362.749,20.871 370.524,19.683 383.736,17.343 C 396.913,15.003 410.917,12.087 426.577,8.739 L 426.577,8.739 C 419.629,14.247 412.068,19.539 403.32,25.191 C 394.536,30.699 385.104,36.279 374.592,41.931 L 374.592,41.931 C 382.152,43.551 390.287,45.603 399.144,47.691 C 407.928,49.743 417.288,52.227 427.368,54.747 L 427.368,54.747 C 418.152,57.483 407.532,60.039 394.969,62.56 C 382.297,65.08 368.365,67.312 352.345,69.652 L 352.345,69.652 L 352.345,82.972 L 352.345,82.972 C 324.769,86.68 300.181,89.38 277.609,91.072 C 255.036,92.691 235.309,93.304 217.74,92.907 L 217.74,92.907 z "
   style="fill-rule:evenodd"
   id="path11" />
		<path
   d="M 217.74,92.907 C 200.136,93.303 180.408,92.691 157.872,91.071 C 135.156,89.38 110.748,86.679 83.1,82.971 L 83.1,82.971 L 83.1,69.651 L 83.1,69.651 C 67.116,67.311 53.112,65.079 40.512,62.559 C 27.912,60.038 17.292,57.483 8.076,54.746 L 8.076,54.746 C 18.228,52.226 27.372,49.742 36.336,47.69 C 45.156,45.602 53.292,43.55 60.888,41.93 L 60.888,41.93 C 50.268,36.278 40.872,30.698 32.124,25.19 C 23.341,19.539 15.781,14.247 8.869,8.739 L 8.869,8.739 C 24.421,12.088 38.569,15.004 51.745,17.343 C 64.813,19.683 72.733,20.87 87.313,22.851 C 101.929,24.759 118.813,26.631 138.793,28.611 L 138.793,28.611 L 138.793,42.723 L 138.793,42.723 C 149.773,43.839 161.617,44.702 174.865,45.315 C 188.077,45.855 202.009,46.252 217.489,46.359 L 217.489,46.359 L 217.993,46.359 L 217.993,46.359 C 233.437,46.252 247.369,45.855 260.617,45.315 C 273.794,44.703 285.674,43.839 296.689,42.723 L 296.689,42.723 L 296.689,28.611 L 296.689,28.611 C 316.633,26.632 333.517,24.759 348.169,22.851 C 362.749,20.871 370.524,19.683 383.736,17.343 C 396.913,15.003 410.917,12.087 426.577,8.739 L 426.577,8.739 C 419.629,14.247 412.068,19.539 403.32,25.191 C 394.536,30.699 385.104,36.279 374.592,41.931 L 374.592,41.931 C 382.152,43.551 390.287,45.603 399.144,47.691 C 407.928,49.743 417.288,52.227 427.368,54.747 L 427.368,54.747 C 418.152,57.483 407.532,60.039 394.969,62.56 C 382.297,65.08 368.365,67.312 352.345,69.652 L 352.345,69.652 L 352.345,82.972 L 352.345,82.972 C 324.769,86.68 300.181,89.38 277.609,91.072 C 255.036,92.691 235.309,93.304 217.74,92.907 L 217.74,92.907 z "
   style="fill:none;stroke:#000000;stroke-width:0.036;stroke-miterlimit:10"
   id="path13" />
	</g><path
     id="path15"
     style="fill:#437abe;fill-rule:evenodd;stroke:#000000;stroke-width:0.036;stroke-miterlimit:10"
     d="M 15.133,-148.561 C 22.189,-146.581 30.901,-144.637 41.557,-142.585 C 52.249,-140.532 63.805,-138.517 78.745,-136.393 C 93.613,-134.377 110.497,-132.433 130.225,-130.416 L 130.225,-130.416 C 124.249,-130.02 117.517,-129.156 109.489,-127.824 C 101.425,-126.456 92.641,-124.837 82.561,-122.568 L 82.561,-122.568 L 82.561,-92.76 L 82.561,-92.76 C 74.857,-93.876 65.533,-95.604 54.193,-97.548 C 42.745,-99.527 29.965,-102.119 14.881,-104.928 L 14.881,-104.928 C 26.365,-108.168 36.229,-110.652 44.905,-112.776 C 53.617,-114.864 60.493,-116.377 66.361,-117.312 L 66.361,-117.312 C 59.377,-120.768 51.853,-125.016 43.249,-130.2 C 34.681,-135.421 25.356,-141.541 15.133,-148.561 L 15.133,-148.561 z " /><path
     id="path17"
     style="fill:#437abe;fill-rule:evenodd;stroke:#000000;stroke-width:0.036;stroke-miterlimit:10"
     d="M 89.725,-122.316 L 137.137,-130.416 L 137.137,-117.816 L 137.137,-117.816 C 129.217,-118.356 121.549,-118.932 113.557,-119.688 C 105.601,-120.48 97.752,-121.309 89.725,-122.316 L 89.725,-122.316 z " /><path
     id="path19"
     style="fill:#437abe;fill-rule:evenodd;stroke:#000000;stroke-width:0.036;stroke-miterlimit:10"
     d="M 420.349,-148.561 C 413.221,-146.581 404.581,-144.637 393.889,-142.585 C 383.089,-140.532 371.569,-138.517 356.701,-136.393 C 341.798,-134.377 324.914,-132.433 305.222,-130.416 L 305.222,-130.416 C 311.126,-130.02 317.894,-129.156 325.958,-127.824 C 333.985,-126.456 342.77,-124.837 352.886,-122.568 L 352.886,-122.568 L 352.886,-92.76 L 352.886,-92.76 C 360.554,-93.876 369.878,-95.604 381.254,-97.548 C 392.63,-99.527 405.518,-102.119 420.602,-104.928 L 420.602,-104.928 C 409.046,-108.168 399.218,-110.652 390.578,-112.776 C 381.831,-114.864 374.954,-116.377 369.122,-117.312 L 369.122,-117.312 C 376.034,-120.768 383.595,-125.016 392.234,-130.2 C 400.765,-135.421 410.089,-141.541 420.349,-148.561 L 420.349,-148.561 z " /><path
     id="path21"
     style="fill:#437abe;fill-rule:evenodd;stroke:#000000;stroke-width:0.036;stroke-miterlimit:10"
     d="M 345.757,-122.316 L 298.309,-130.416 L 298.309,-117.816 L 298.309,-117.816 C 306.157,-118.356 313.933,-118.932 321.925,-119.688 C 329.845,-120.48 337.692,-121.309 345.757,-122.316 L 345.757,-122.316 z " /><path
     id="path23"
     style="fill:#437abe;fill-rule:evenodd;stroke:#000000;stroke-width:0.036;stroke-miterlimit:10"
     d="M 215.797,-68.929 C 204.673,-68.784 191.965,-69.109 176.701,-69.901 C 161.329,-70.873 140.485,-72.349 125.005,-73.933 C 109.561,-75.553 96.277,-77.173 84.721,-79.189 L 84.721,-79.189 L 84.721,-121.129 L 84.721,-121.129 C 96.061,-119.509 107.509,-118.032 119.497,-116.845 C 131.485,-115.765 139.801,-114.865 155.965,-114.001 C 172.057,-113.209 191.569,-112.488 215.329,-111.841 L 220.152,-111.841 C 243.913,-112.488 263.316,-113.209 279.48,-114.001 C 295.464,-114.864 303.924,-115.765 315.948,-116.845 C 327.9,-118.033 339.312,-119.509 350.761,-121.129 L 350.761,-121.129 L 350.761,-79.189 L 350.761,-79.189 C 339.133,-77.173 325.885,-75.553 310.477,-73.933 C 294.925,-72.349 273.973,-70.872 258.745,-69.901 C 243.445,-69.109 230.701,-68.785 219.685,-68.929 L 215.797,-68.929 z " /></g></svg>