<?xml version="1.0" encoding="utf-8"?>
<!-- Generator: Adobe Illustrator 21.0.0, SVG Export Plug-In . SVG Version: 6.00 Build 0)  -->
<svg version="1.1" xmlns="http://www.w3.org/2000/svg" xmlns:xlink="http://www.w3.org/1999/xlink" x="0px" y="0px"
	 viewBox="0 0 648 432" style="enable-background:new 0 0 648 432;" xml:space="preserve">
<style type="text/css">
	.st0{fill:#383E3D;}
	.st1{fill:#CEE3A5;}
	.st2{fill:#91BA8D;}
	.st3{fill:#B1DAAF;}
	.st4{fill:#E3E3E5;}
	.st5{fill:#B6B7B9;}
	.st6{fill:#919295;}
	.st7{display:none;}
	.st8{display:inline;fill:none;stroke:#303334;stroke-width:5;stroke-miterlimit:10;}
	.st9{display:inline;fill:#303334;}
</style>
<g id="Layer_1">
	<path class="st0" d="M241.4,153.6c-3.3,0.9-6.7,1.5-7.5,5.5c0.3,3.3,2.1,5.5,4,7.7c0.7,0.8,4.4,3.4,5.5,3.9
		c1.8,0.7,3.5,1.5,5.2,2.2c2.3,4.3,4.4,8.3,6.9,13c-4.1,1.1-7.7,2.1-11.4,3.1c-2.3,0.8-4.6,0.6-6.9,0.1c-1.6-0.6-3.2-1.2-4.8-1.7
		c-2.6-0.7-5.2-0.9-7.8,0.2c-4.5,2.3-4.6,5.9-3.8,9.7c0.1,0.6,1.1,2.9,1.5,3.5c3.8,5.7,9,9.6,16.1,11.2c4.2,1,14.7,6.5,14.7,6.5
		c0.4,0.5,2.2,1.3,2.5,1.7c0.8,0.8,1.7,1.5,2.6,2.3c0,0,10.5,10.2,12.5,16.4c1,2.9,2,5.9,3,8.8c0.5,1.4,2.2,7.3,2.4,10.2
		c0.3,6.2,0,15-1,16c-2.6-1.3-5.1-2.5-7.7-3.8c-1.4-0.6-2.7-0.7-4.1-0.4c-0.4,0.1-1.5,0.7-1.7,0.8c-0.5,0.4-1,0.8-1.5,1.2
		c-0.4,0.3-1.5,1.8-1.7,2.7c-0.3,1.7-0.6,4.3-0.4,5.6c0.1,0.6,0.3,1.7,0.6,2.8c0.3,1.3,3.8,5.2,4.3,5.5c3.4,1.9,6.7,4,10.4,4.9
		c9,2.1,17.5,0.1,24.9-5.4c3.9-2.9,7.5-6.4,11.2-9.7c4.9-4.4,9.7-9,16.4-12.2c6,14,13,27.1,22.5,38.9c2,2,3.9,3.9,5.9,5.9
		c0,0,5.5,4.2,10.4,6.2c6.6,3.1,13.4,3.5,20.3,1c0.6-0.3,1.1-0.7,1.5-1.2l0,0c0.4-0.4,0.8-0.8,1.3-1.2l0.1-0.1
		c0.3-0.5,0.7-0.9,1.2-1.3l0,0c0.5-0.5,0.9-1,1.1-1.6c0.4-0.9,0.8-1.8,1.2-2.7c0.1-0.7,0.3-1.4,0.4-2.1c1-7.5-2.7-10.5-2.7-10.5
		c-4.3-4.4-10-6.4-15.4-8.8c-9.9-4.4-18.7-10.1-24.7-19.4c-0.9-1.3-1.7-2.5-2.6-3.8c-1-2-1.5-4,1.3-5c3-0.1,6-0.2,9-0.4l6.6-0.3
		c0.8,0,1.6,0,2.4,0l8,0c5.3-0.3,10.6-0.6,15.9-0.9c10.2-0.6,17.5-5.1,20.3-15.4l0.8-7.8c-0.3-3.4-0.6-6.9-1.5-10.1
		c-1.1-4.2-3-5.7-6.7-6.2c-0.7-0.1-3.1,0.3-3.4,0.6c-2.6,1.9-3.8,4.9-4.7,8c-0.9,3-2.2,5.5-5.5,6.7c-2.2-2.7-4.4-5-6.3-7.6
		c-7.4-10.2-13.5-21-14.3-33.9c-0.1-0.8-0.3-1.6-0.4-2.4l-0.1-8.2c0.1-7.8,3.3-13.9,9.5-18.5c1.3-1,2.5-2.1,3.7-3.2
		c0.5-0.5,2.6-3.7,3-4.9c1.4-4.2,1.9-8.5,1.3-12.9c-0.1-0.9-1.2-3.5-1.5-3.9c-1.6-1.9-3.3-3.7-4.9-5.6c-2.1-1.2-4.3-0.6-6.5-0.3
		c-2.1,0.7-3.4,2.5-3.8,2.9l-0.1,0.1c-0.4,0.5-5.1,5-5.8,6.1c-6.8,9.9-17.5,8.3-27.7,10.2c1.4-4.5,4.2-7.9,4.3-11.9
		c0,0,0.6-2.1-0.6-7.6c-0.2-1-1.7-4.5-2.2-5.1c-0.5-0.7-1-1.4-1.5-2c-1.2-1.1-2.5-0.8-3.9-0.2c-3.5,1.3-7.1,2.6-10.6,3.9
		c-1.2,0.4-5,2.3-5.7,2.8c-1.4,0.9-2.7,1.8-3.9,2.6c-9.2-2-17.9-1.9-26.6,0.1c-12.4,2.8-24.4,6.4-33.1,16.7c-0.8,0.9-2.6,0.9-4,1.3"
		/>
	<path class="st1" d="M386.3,316.5c0.4-0.4,0.8-0.8,1.3-1.2C387.1,315.7,386.7,316.1,386.3,316.5z"/>
	<path class="st1" d="M387.7,315.2c0.4-0.4,0.8-0.9,1.2-1.3C388.4,314.4,388.1,314.8,387.7,315.2z"/>
	<path class="st1" d="M388.9,313.9c0.4-0.5,0.8-1.1,1.1-1.6C389.6,312.8,389.3,313.4,388.9,313.9z"/>
	<path class="st1" d="M384.7,317.7c0.5-0.4,1-0.8,1.5-1.2C385.7,316.9,385.2,317.3,384.7,317.7z"/>
	<path class="st2" d="M241.5,153.6"/>
	<path class="st2" d="M246.9,152.5"/>
	<path class="st1" d="M258.4,284c0.4,0.5,0.7,1,1.1,1.5C259.1,285,258.8,284.5,258.4,284z"/>
	<path class="st3" d="M377.2,131.7c-0.4,0-0.8,0-1.2-0.2C376.4,131.6,376.8,131.7,377.2,131.7z"/>
	<path class="st3" d="M370.8,133.1c-0.4,0.4-0.9,0.8-1.3,1.2C369.9,133.8,370.3,133.5,370.8,133.1z"/>
	<path class="st3" d="M369.3,134.3c-0.4,0.4-0.8,0.8-1.2,1.2C368.6,135.2,368.9,134.7,369.3,134.3z"/>
	<path class="st3" d="M368.1,135.6c-0.4,0.5-0.8,1-1.2,1.4C367.3,136.6,367.7,136.1,368.1,135.6z"/>
	<path class="st4" d="M293.3,238.9c-1.3-4.3-2.3-8.7-3.9-12.9c-4.3-11.7-12.5-18.6-24.9-20.7c-7.5-1.2-14.9-1.3-22.4-0.3
		c-9.5,1.4-13.7-1.6-16.9-11.2c4.4-5.2,8.4-0.1,12.6,1.5c7.2-1.8,14.4-3.6,22.3-5.6c1.8,1.4,4.1,3.3,6.6,5c9,6.1,18.6,10,29.7,6.6
		c8.3-2.6,14.6-8,19.6-15c4.9-6.7,7.4-14.5,9.2-22.5c2.5-2.6,5.8-2.5,9-2.5c8.9,0.1,17.4-1.8,25.8-4.9c4.3-1.6,7.1-4.1,8.7-8.7
		c2.6-7.4,4.8-8.6,10.2-7.4c3.1,7.8,1.5,13.6-4.5,18.9c-7.8,6.9-16.6,12.2-26.1,16.3c-1,0.4-2,0.9-2.9,1.3
		c-9.8,4.8-13.4,12.4-10.2,22.8c1.5,4.9,4,9.4,6.1,14.1c5.7,15,2.5,27.8-8.6,35c-10.2,6.6-24.9,5.6-34.3-2.1
		C295.7,244.8,295.1,241.6,293.3,238.9z"/>
	<path class="st5" d="M293.3,238.9c3.4,2.8,6.6,5.9,10.2,8.2c9.1,5.8,23.5,5.4,31.9-3.6c6.2-6.6,7.9-15.4,6.5-24.5
		c-0.3-1.7-0.4-3.3-0.6-5c4.4,5.2,8.4,10.8,13.3,15.5c7.8,7.6,17.2,11.7,28.4,10.9c7.9-0.5,13.3-3.9,15.7-11.7
		c0.5-1.8,1.4-3.5,2.5-6.3c1.4,1.7,2.2,2.7,3,3.7c-0.7,3.5-0.9,7.1-1.5,10.6c-1.1,6.7-3.9,12.4-9.9,16.2c-11.4,0.5-22.8,1-34.1,1.5
		c-4.9,0.2-9.9,0.5-14.8,0.9c-13.5,1-24.6,7.2-34.4,16.1c-4.3,3.9-8.4,8.1-13,11.6c-6.7,5-14.2,8-22.8,5.3c-0.7-2.5-3.4-3-4.7-5
		c-1.4-2.2-4.2-4.1-1.2-7.1c0.6,0.2,1.2,0.3,1.8,0.6c8.5,4.2,13.9,2.9,19.1-4.9c3.2-4.7,4.5-10.1,4.7-15.7
		C293.4,250.4,293.3,244.7,293.3,238.9z"/>
	<path class="st4" d="M308.7,187.3c-13.1,15.2-30.4,12.8-44.2-0.7c6.1-3.2,11-7.3,10.5-14.8c-6.3-8-12.2-9-22.7-3.4
		c-0.2-2.5-0.7-4.8-0.4-6.9c0.6-4.4,2.4-8.3,7.2-9.8c4.6-1.4,8,1,10.6,4.3c2.2,2.9,4,6.1,6.1,9.1c1,1.5,2.2,2.9,3.1,4.2
		c3-0.8,2.7-2.7,2.7-4.4c0-3.4-0.2-6.9-0.1-10.3c0.1-4.1,1-8.1,3.9-11.2c5.7-3.3,12-3.4,18.1-1.9c11.5,2.8,16.8,12.4,14.5,24.8
		C316.6,174.1,313.2,180.9,308.7,187.3z"/>
	<path class="st5" d="M383.2,235.3c-6.5,1.2-11.4-0.4-16.1-3c-7.5-4.1-13.4-10-18.2-17c-3.9-5.6-7.7-11.4-9.1-18.3
		c-1.5-7.1,0.4-11.5,6.8-14.9c5.1-2.7,10.4-5,16.5-7.9c-0.6,11.3-0.8,22.1,3.1,32.5C369.9,217.2,375.6,226.4,383.2,235.3z"/>
	<path class="st5" d="M382.4,312.7c-2.8,2.1-5.8,2.3-9.1,1.7c-6.8-1.2-12.5-4.4-17.4-9.1c-8.7-8.3-14.6-18.5-20-29
		c-2-4-3.7-8.1-5.8-12.7c1.9-0.5,3.2-0.9,4.5-1.3c1.1,0.6,2.4,1.1,3,2.3c8.4,16.4,23,25.2,39.1,32.3
		C384.7,300.4,386,304.5,382.4,312.7z"/>
	<path class="st5" d="M285.3,230c3.7,10.3,4.2,21,2.5,31.7c-0.7,4.5-2.9,7.5-6.9,10.8c2.3-23-4.9-42-22.6-56.8
		c0.5-3.8,3.3-3.2,5.8-2.8c6.5,0.9,11.7,4,15.6,9.2C281.8,224.6,283.1,227.6,285.3,230z"/>
	<path class="st5" d="M308.7,187.3c0.5-1.6,0.7-3.4,1.6-4.7c3.4-5.1,4.9-10.9,6-16.7c1.3-6.4,0-10.4-4.5-17.4
		c-5.3-4.1-11.2-5.9-18-5.2c-2.8,0.3-5.6,0.1-8.3,0.1c2.1-3.8,5.5-5.4,9.6-5.3c5.3,0,10.7,0.5,17.1,0.9c5.5-3.4,11.8-7.9,19.6-9
		c2.9,7.2-0.5,14.9-11,25.1C320.5,166.9,318.3,178.5,308.7,187.3z"/>
	<path class="st6" d="M382.4,312.7c-0.1-4,0.9-8.2-2.8-12.3c-6.5-3.3-14-6.6-21-10.7c-11-6.4-19.3-15.4-24.1-27.4
		c0.6-0.3,1.1-0.7,1.7-0.9c0.4-0.2,0.8-0.2,1.7-0.3c1.7,2.7,3.5,5.5,5.3,8.3c5.7,8.9,13.4,15.4,22.7,20.1c4,2,8,4.1,12.2,5.8
		c3.4,1.3,5.9,3.3,7.9,6.4C386.7,305.9,387.5,310.3,382.4,312.7z"/>
	<path class="st5" d="M379,140.5c-3.3,0-6.1,1.3-7,4.5c-3.6,13.1-14.3,16-25.6,17.6c-6.9,1-14,0.9-21.1,1.3c0.1-1.5,0.3-2.9,0.4-4.9
		c13.7,0.9,26.7-1.1,39.2-7c3-4.9,4-11.2,9.9-15.5C376.2,137.8,377.6,139.2,379,140.5z"/>
	<path class="st6" d="M285.3,230c-1.3-1-2.8-1.7-3.7-2.9c-4.8-6.7-11.1-11.1-19.3-12.4c-1.2-0.2-2.6,0.7-3.9,1
		c-2.8-1.9-5.6-3.8-8.6-5.9C269.3,207.4,282.5,215.5,285.3,230z"/>
	<path class="st4" d="M392.8,252.9c5.3-6.9,7.3-15.1,9-23.3c0.3-1.3,1.6-2.3,2.4-3.4c2.5,5.8,2.2,11.7,0.2,17.5
		c-1.5,4.2-4.1,7.5-8.8,8.4c-0.5,0.3-1,0.5-1.6,0.6l-0.5,0.2L392.8,252.9z"/>
	<path class="st5" d="M267.7,276.2c0.5,1.3,0.7,2.7,1.4,3.8c2,2.9,4.3,5.7,6.4,8.6c0.4-0.3,0.9-0.6,1.3-1c-1.1,0.2-2.2,0.4-3.3,0.6
		c-3.8-0.4-6.8-2.3-9.3-4.9c-1.8-1.9-3.1-4.1-2.1-6.9C264,275.1,265.8,275.5,267.7,276.2L267.7,276.2z"/>
	<path class="st4" d="M238.5,159.3c3.4-0.7,5.9-1.3,8.7-1.9c0,3.4,0,6.1,0,9.3C243,165.9,241,163.2,238.5,159.3z"/>
	<path class="st5" d="M393.9,252.7c0.5-0.2,1.1-0.4,1.6-0.6C395,252.3,394.5,252.5,393.9,252.7z"/>
	<path class="st0" d="M287.2,168.8c-0.5-4.5,0.6-8.4,3.4-11.5c1.9-2.1,4.6-4,7.3-4.8c5.6-1.6,11.9,1.9,13.7,6.7
		c1.6,4.3-1,10.1-5.7,13.1C299.9,176.2,293.3,175.1,287.2,168.8z"/>
	<path class="st0" d="M288.6,191c-4.4,0.7-7.4,0.5-9.7-2.4c1.2-6.1,5.2-7.7,11.8-4.4C290.1,186.4,289.4,188.7,288.6,191z"/>
	<path class="st0" d="M317.4,144c3.7-4.8,7.4-8.4,12.7-10.3c0.4,6.6-3.2,12.7-10.2,16.9C319,148.2,318.2,146,317.4,144z"/>
	<circle class="st4" cx="301.7" cy="160" r="3.3"/>
	<circle class="st4" cx="266.3" cy="173.5" r="3.3"/>
	<path class="st0" d="M360.5,315.2"/>
</g>
<g id="Lines" class="st7">
	<path class="st8" d="M297.2,197.7l7.9-5l5.9-5.4l3.8-5.9l3.6-6.3l2.3-6.3l0.7-5.8l0.5-7.3l2.2-1.6l1.4-2.9l2.7-3.4l2.9-4.3l2.5-6.1
		V132v-4.3l-1.4-1.1h-1.8h-2.3h-2.5l-3.6,1.6l-4.1,2l-5.4,3.8h-1.8h-5.9h-7.4H290h-5.2l-5.4,1.4l-5.4,1.8l-9.2,3.4l-5.9,3.4
		l-4.1,2.9c0,0-2.5,2.5-2.9,3.2s-1.8,3.8-1.8,3.8h-2h-3.6h-2.9l-2.5,1.1l-2.9,1.6l-1.6,2v2.3l1.4,2l2.7,2.5l2.9,1.8l3.4,1.8l3.4,1.4
		l1.6,3.6l3.4,5.4l3.2,5c0,0,4.1,4.1,4.5,4.7s3.2,2.3,3.6,2.9c0.5,0.7,5.4,3.4,6.1,3.6c0.7,0.2,5.2,2.5,5.2,2.5s4.7,1.1,5.4,1.5
		s3.4,0.3,4.3,0.1l4.3,0.2h3.6L297.2,197.7z"/>
</g>
<g id="Solids" class="st7">
	<polygon class="st9" points="285.7,189.8 284,189.8 281.2,189.8 278.8,189.8 277.4,187.1 277.4,185.8 278.8,183.5 281.6,181.7 
		284,181.7 285.7,181.7 287.5,182.8 287.5,184.9 288.7,186.9 288.7,188.9 	"/>
</g>
</svg>
