<?xml version="1.0" encoding="utf-8"?>
<!-- Generator: Adobe Illustrator 21.0.0, SVG Export Plug-In . SVG Version: 6.00 Build 0)  -->
<svg version="1.1" id="Layer_1" xmlns="http://www.w3.org/2000/svg" xmlns:xlink="http://www.w3.org/1999/xlink" x="0px" y="0px"
	 viewBox="0 0 64 64" style="enable-background:new 0 0 64 64;" xml:space="preserve">
<style type="text/css">
	.st0{fill:#383E3D;}
	.st1{fill:#CEE3A5;}
	.st2{fill:#91BA8D;}
	.st3{fill:#B1DAAF;}
	.st4{fill:#E3E3E5;}
	.st5{fill:#B6B7B9;}
	.st6{fill:#919295;}
</style>
<g id="Layer_1_1_">
	<path class="st0" d="M9.4,10.3c-1,0.3-2.1,0.5-2.4,1.7c0.1,1,0.7,1.7,1.3,2.4c0.2,0.3,1.4,1.1,1.7,1.2c0.6,0.2,1.1,0.5,1.6,0.7
		c0.7,1.4,1.4,2.6,2.2,4.1c-1.3,0.3-2.4,0.7-3.6,1c-0.7,0.3-1.5,0.2-2.2,0c-0.5-0.2-1-0.4-1.5-0.5c-0.8-0.2-1.6-0.3-2.5,0.1
		c-1.4,0.7-1.5,1.9-1.2,3.1c0,0.2,0.3,0.9,0.5,1.1c1.2,1.8,2.8,3,5.1,3.5c1.3,0.3,4.7,2.1,4.7,2.1c0.1,0.2,0.7,0.4,0.8,0.5
		c0.3,0.3,0.5,0.5,0.8,0.7c0,0,3.3,3.2,4,5.2c0.3,0.9,0.6,1.9,0.9,2.8c0.2,0.4,0.7,2.3,0.8,3.2c0.1,2,0,4.7-0.3,5.1
		c-0.8-0.4-1.6-0.8-2.4-1.2c-0.4-0.2-0.9-0.2-1.3-0.1c-0.1,0-0.5,0.2-0.5,0.3c-0.2,0.1-0.3,0.3-0.5,0.4c-0.1,0.1-0.5,0.6-0.5,0.9
		c-0.1,0.5-0.2,1.4-0.1,1.8c0,0.2,0.1,0.5,0.2,0.9c0.1,0.4,1.2,1.6,1.4,1.7c1.1,0.6,2.1,1.3,3.3,1.6c2.8,0.7,5.5,0,7.9-1.7
		c1.2-0.9,2.4-2,3.5-3.1c1.6-1.4,3.1-2.8,5.2-3.9c1.9,4.4,4.1,8.6,7.1,12.3c0.6,0.6,1.2,1.2,1.9,1.9c0,0,1.7,1.3,3.3,2
		c2.1,1,4.2,1.1,6.4,0.3c0.2-0.1,0.3-0.2,0.5-0.4l0,0c0.1-0.1,0.3-0.3,0.4-0.4l0,0c0.1-0.2,0.2-0.3,0.4-0.4l0,0
		c0.2-0.2,0.3-0.3,0.3-0.5c0.1-0.3,0.3-0.6,0.4-0.9c0-0.2,0.1-0.4,0.1-0.7c0.3-2.4-0.9-3.3-0.9-3.3c-1.4-1.4-3.2-2-4.9-2.8
		c-3.1-1.4-5.9-3.2-7.8-6.1c-0.3-0.4-0.5-0.8-0.8-1.2c-0.3-0.6-0.5-1.3,0.4-1.6c0.9,0,1.9-0.1,2.8-0.1l2.1-0.1c0.3,0,0.5,0,0.8,0
		h2.5c1.7-0.1,3.4-0.2,5-0.3c3.2-0.2,5.5-1.6,6.4-4.9l0.3-2.5c-0.1-1.1-0.2-2.2-0.5-3.2c-0.3-1.3-0.9-1.8-2.1-2
		c-0.2,0-1,0.1-1.1,0.2c-0.8,0.6-1.2,1.6-1.5,2.5c-0.3,0.9-0.7,1.7-1.7,2.1c-0.7-0.9-1.4-1.6-2-2.4c-2.3-3.2-4.3-6.6-4.5-10.7
		c0-0.3-0.1-0.5-0.1-0.8l0-2.6c0-2.5,1-4.4,3-5.9c0.4-0.3,0.8-0.7,1.2-1c0.2-0.2,0.8-1.2,0.9-1.6C55,9.6,55.2,8.2,55,6.9
		c0-0.3-0.4-1.1-0.5-1.2c-0.5-0.6-1-1.2-1.6-1.8c-0.7-0.4-1.4-0.2-2.1-0.1c-0.7,0.2-1.1,0.8-1.2,0.9l0,0c-0.1,0.2-1.6,1.6-1.8,1.9
		c-2.2,3.1-5.5,2.6-8.8,3.2c0.4-1.4,1.3-2.5,1.4-3.8c0,0,0.2-0.7-0.2-2.4c-0.1-0.3-0.5-1.4-0.7-1.6c-0.2-0.2-0.3-0.4-0.5-0.6
		c-0.4-0.3-0.8-0.3-1.2-0.1c-1.1,0.4-2.2,0.8-3.4,1.2c-0.4,0.1-1.6,0.7-1.8,0.9c-0.4,0.3-0.9,0.6-1.2,0.8c-2.9-0.6-5.7-0.6-8.4,0
		c-3.9,0.9-7.7,2-10.5,5.3c-0.3,0.3-0.8,0.3-1.3,0.4"/>
	<path class="st1" d="M55.3,61.8c0.1-0.1,0.3-0.3,0.4-0.4C55.6,61.6,55.4,61.7,55.3,61.8z"/>
	<path class="st1" d="M55.8,61.4c0.1-0.1,0.3-0.3,0.4-0.4C56,61.2,55.9,61.3,55.8,61.4z"/>
	<path class="st1" d="M56.1,61c0.1-0.2,0.3-0.3,0.3-0.5C56.4,60.7,56.3,60.9,56.1,61z"/>
	<path class="st1" d="M54.8,62.2c0.2-0.1,0.3-0.3,0.5-0.4C55.1,62,55,62.1,54.8,62.2z"/>
	<path class="st2" d="M9.5,10.3"/>
	<path class="st2" d="M11.2,9.9"/>
	<path class="st1" d="M14.8,51.5c0.1,0.2,0.2,0.3,0.3,0.5C15,51.9,15,51.7,14.8,51.5z"/>
	<path class="st3" d="M52.4,3.3c-0.1,0-0.3,0-0.4-0.1C52.2,3.3,52.3,3.3,52.4,3.3z"/>
	<path class="st3" d="M50.4,3.8C50.3,3.9,50.1,4,50,4.2C50.1,4,50.2,3.9,50.4,3.8z"/>
	<path class="st3" d="M49.9,4.2c-0.1,0.1-0.3,0.3-0.4,0.4C49.7,4.4,49.8,4.3,49.9,4.2z"/>
	<path class="st3" d="M49.5,4.6c-0.1,0.2-0.3,0.3-0.4,0.4C49.3,4.9,49.4,4.7,49.5,4.6z"/>
	<path class="st4" d="M25.9,37.3c-0.4-1.4-0.7-2.8-1.2-4.1c-1.4-3.7-4-5.9-7.9-6.6c-2.4-0.4-4.7-0.4-7.1-0.1C6.7,27,5.3,26,4.3,23
		c1.4-1.6,2.7,0,4,0.5c2.3-0.6,4.6-1.1,7.1-1.8c0.6,0.4,1.3,1,2.1,1.6c2.8,1.9,5.9,3.2,9.4,2.1c2.6-0.8,4.6-2.5,6.2-4.7
		c1.6-2.1,2.3-4.6,2.9-7.1c0.8-0.8,1.8-0.8,2.8-0.8c2.8,0,5.5-0.6,8.2-1.6c1.4-0.5,2.2-1.3,2.8-2.8c0.8-2.3,1.5-2.7,3.2-2.3
		c1,2.5,0.5,4.3-1.4,6c-2.5,2.2-5.3,3.9-8.3,5.2c-0.3,0.1-0.6,0.3-0.9,0.4c-3.1,1.5-4.2,3.9-3.2,7.2c0.5,1.6,1.3,3,1.9,4.5
		c1.8,4.7,0.8,8.8-2.7,11.1c-3.2,2.1-7.9,1.8-10.9-0.7C26.6,39.1,26.4,38.1,25.9,37.3z"/>
	<path class="st5" d="M25.9,37.3c1.1,0.9,2.1,1.9,3.2,2.6c2.9,1.8,7.4,1.7,10.1-1.1c2-2.1,2.5-4.9,2.1-7.8c-0.1-0.5-0.1-1-0.2-1.6
		c1.4,1.6,2.7,3.4,4.2,4.9c2.5,2.4,5.4,3.7,9,3.5c2.5-0.2,4.2-1.2,5-3.7c0.2-0.6,0.4-1.1,0.8-2c0.4,0.5,0.7,0.9,0.9,1.2
		c-0.2,1.1-0.3,2.2-0.5,3.4c-0.3,2.1-1.2,3.9-3.1,5.1c-3.6,0.2-7.2,0.3-10.8,0.5c-1.6,0.1-3.1,0.2-4.7,0.3
		c-4.3,0.3-7.8,2.3-10.9,5.1c-1.4,1.2-2.7,2.6-4.1,3.7c-2.1,1.6-4.5,2.5-7.2,1.7c-0.2-0.8-1.1-0.9-1.5-1.6c-0.4-0.7-1.3-1.3-0.4-2.2
		c0.2,0.1,0.4,0.1,0.6,0.2c2.7,1.3,4.4,0.9,6-1.6c1-1.5,1.4-3.2,1.5-5C25.9,40.9,25.9,39.1,25.9,37.3z"/>
	<path class="st4" d="M30.7,20.9c-4.1,4.8-9.6,4.1-14-0.2c1.9-1,3.5-2.3,3.3-4.7c-2-2.5-3.9-2.8-7.2-1.1c-0.1-0.8-0.2-1.5-0.1-2.2
		c0.2-1.4,0.8-2.6,2.3-3.1c1.5-0.4,2.5,0.3,3.4,1.4c0.7,0.9,1.3,1.9,1.9,2.9c0.3,0.5,0.7,0.9,1,1.3c0.9-0.3,0.9-0.9,0.9-1.4
		c0-1.1-0.1-2.2,0-3.3c0-1.3,0.3-2.6,1.2-3.5c1.8-1,3.8-1.1,5.7-0.6c3.6,0.9,5.3,3.9,4.6,7.8C33.2,16.8,32.2,18.9,30.7,20.9z"/>
	<path class="st5" d="M54.3,36.1c-2.1,0.4-3.6-0.1-5.1-0.9c-2.4-1.3-4.2-3.2-5.8-5.4C42.2,28,41,26.2,40.6,24
		c-0.5-2.2,0.1-3.6,2.2-4.7c1.6-0.9,3.3-1.6,5.2-2.5c-0.2,3.6-0.3,7,1,10.3C50.1,30.4,51.9,33.3,54.3,36.1z"/>
	<path class="st5" d="M54.1,60.6c-0.9,0.7-1.8,0.7-2.9,0.5c-2.2-0.4-4-1.4-5.5-2.9c-2.8-2.6-4.6-5.9-6.3-9.2c-0.6-1.3-1.2-2.6-1.8-4
		c0.6-0.2,1-0.3,1.4-0.4c0.3,0.2,0.8,0.3,0.9,0.7c2.7,5.2,7.3,8,12.4,10.2C54.8,56.7,55.2,58,54.1,60.6z"/>
	<path class="st5" d="M23.3,34.5c1.2,3.3,1.3,6.6,0.8,10c-0.2,1.4-0.9,2.4-2.2,3.4c0.7-7.3-1.6-13.3-7.2-18c0.2-1.2,1-1,1.8-0.9
		c2.1,0.3,3.7,1.3,4.9,2.9C22.2,32.7,22.6,33.7,23.3,34.5z"/>
	<path class="st5" d="M30.7,20.9c0.2-0.5,0.2-1.1,0.5-1.5c1.1-1.6,1.6-3.5,1.9-5.3c0.4-2,0-3.3-1.4-5.5C30,7.4,28.2,6.8,26,7
		c-0.9,0.1-1.8,0-2.6,0c0.7-1.2,1.7-1.7,3-1.7c1.7,0,3.4,0.2,5.4,0.3c1.7-1.1,3.7-2.5,6.2-2.8c0.9,2.3-0.2,4.7-3.5,7.9
		C34.5,14.5,33.8,18.2,30.7,20.9z"/>
	<path class="st6" d="M54.1,60.6c0-1.3,0.3-2.6-0.9-3.9c-2.1-1-4.4-2.1-6.6-3.4c-3.5-2-6.1-4.9-7.6-8.7c0.2-0.1,0.3-0.2,0.5-0.3
		c0.1-0.1,0.3-0.1,0.5-0.1c0.5,0.9,1.1,1.7,1.7,2.6c1.8,2.8,4.2,4.9,7.2,6.4c1.3,0.6,2.5,1.3,3.9,1.8c1.1,0.4,1.9,1,2.5,2
		C55.4,58.5,55.7,59.9,54.1,60.6z"/>
	<path class="st5" d="M53,6.1c-1,0-1.9,0.4-2.2,1.4c-1.1,4.1-4.5,5.1-8.1,5.6c-2.2,0.3-4.4,0.3-6.7,0.4c0-0.5,0.1-0.9,0.1-1.6
		c4.3,0.3,8.5-0.3,12.4-2.2c0.9-1.6,1.3-3.5,3.1-4.9C52.1,5.3,52.6,5.7,53,6.1z"/>
	<path class="st6" d="M23.3,34.5c-0.4-0.3-0.9-0.5-1.2-0.9c-1.5-2.1-3.5-3.5-6.1-3.9c-0.4-0.1-0.8,0.2-1.2,0.3
		c-0.9-0.6-1.8-1.2-2.7-1.9C18.3,27.3,22.5,29.9,23.3,34.5z"/>
	<path class="st4" d="M57.4,41.7c1.7-2.2,2.3-4.8,2.8-7.4c0.1-0.4,0.5-0.7,0.8-1.1c0.8,1.8,0.7,3.7,0.1,5.5
		c-0.5,1.3-1.3,2.4-2.8,2.7c-0.2,0.1-0.3,0.2-0.5,0.2l-0.2,0.1H57.4z"/>
	<path class="st5" d="M17.8,49.1c0.2,0.4,0.2,0.9,0.4,1.2c0.6,0.9,1.4,1.8,2,2.7c0.1-0.1,0.3-0.2,0.4-0.3c-0.3,0.1-0.7,0.1-1,0.2
		c-1.2-0.1-2.2-0.7-2.9-1.6c-0.6-0.6-1-1.3-0.7-2.2C16.6,48.7,17.2,48.9,17.8,49.1L17.8,49.1z"/>
	<path class="st4" d="M8.5,12.1c1.1-0.2,1.9-0.4,2.8-0.6c0,1.1,0,1.9,0,2.9C9.9,14.2,9.3,13.3,8.5,12.1z"/>
	<path class="st5" d="M57.7,41.6c0.2-0.1,0.3-0.1,0.5-0.2C58.1,41.5,57.9,41.6,57.7,41.6z"/>
	<path class="st0" d="M23.9,15.1c-0.2-1.4,0.2-2.7,1.1-3.6c0.6-0.7,1.5-1.3,2.3-1.5c1.8-0.5,3.8,0.6,4.3,2.1
		c0.5,1.4-0.3,3.2-1.8,4.1C28,17.4,25.9,17.1,23.9,15.1z"/>
	<path class="st0" d="M24.4,22.1c-1.4,0.2-2.3,0.2-3.1-0.8c0.4-1.9,1.6-2.4,3.7-1.4C24.9,20.7,24.6,21.4,24.4,22.1z"/>
	<path class="st0" d="M33.5,7.2c1.2-1.5,2.3-2.7,4-3.3c0.1,2.1-1,4-3.2,5.3C34,8.6,33.8,7.9,33.5,7.2z"/>
	<circle class="st4" cx="28.5" cy="12.3" r="1"/>
	<circle class="st4" cx="17.3" cy="16.6" r="1"/>
	<path class="st0" d="M47.1,61.4"/>
</g>
</svg>
